<svg width="100" height="100" viewBox="0 0 100 100" fill="none" xmlns="http://www.w3.org/2000/svg">
<path d="M24.7534 31.7478C24.7877 31.7644 41.482 39.1085 41.5194 39.1246C42.5064 39.5633 43.6026 39.7749 44.7431 39.5916C47.76 39.1069 49.8167 36.2378 49.3393 33.1821C48.9764 30.8586 47.252 29.0866 45.1192 28.6019C45.0823 28.5928 27.2296 24.5758 27.19 24.5661C26.7073 24.4422 26.1914 24.4112 25.6702 24.4951C23.6166 24.8237 22.216 26.7764 22.5436 28.8546C22.7494 30.1858 23.6229 31.2209 24.7534 31.7478Z" fill="#EB2D4B"/>
<path d="M45.2453 19.6559C44.6139 20.714 44.3728 22.0035 44.7759 23.2679C45.4885 25.492 47.8481 26.7083 50.0436 25.9858C50.77 25.7469 51.3835 25.3237 51.8599 24.7861C51.8847 24.7572 62.3131 12.493 62.34 12.463C63.6267 10.9496 64.2375 8.89544 63.5903 6.87063C62.6455 3.92988 59.5252 2.32029 56.6207 3.27525C55.3214 3.70276 54.2727 4.5658 53.6244 5.66825C53.4419 5.97232 45.267 19.6228 45.2453 19.6559Z" fill="#EB2D4B"/>
<path d="M75.3415 39.9936C74.154 39.7141 72.8658 39.8825 71.8071 40.6643C69.9413 42.0414 69.533 44.6898 70.8929 46.58C71.3434 47.2047 71.9305 47.6648 72.582 47.9555C72.6179 47.9731 87.3646 54.2052 87.401 54.2212C89.2199 54.9897 91.3384 54.9411 93.0349 53.6879C95.5026 51.8657 96.0454 48.3611 94.2455 45.8607C93.44 44.7433 92.3059 44.0015 91.0688 43.7183C90.7275 43.6376 75.38 40.0038 75.3415 39.9936Z" fill="#EB2D4B"/>
<path d="M65.5813 75.2234C65.4769 73.9922 64.9246 72.8037 63.8643 72.024C61.9974 70.6485 59.383 71.0696 58.0252 72.9608C57.5773 73.5866 57.3278 74.2952 57.254 75.0123C57.246 75.053 55.9315 91.1841 55.9288 91.2231C55.7637 93.2137 56.4622 95.2406 58.1618 96.4906C60.6327 98.3091 64.0906 97.7534 65.8873 95.2503C66.6881 94.1286 67.0357 92.8092 66.9217 91.5293C66.8933 91.1766 65.584 75.263 65.5813 75.2234Z" fill="#EB2D4B"/>
<path d="M29.4377 76.7704C30.5602 76.2921 31.5066 75.3927 31.9138 74.1316C32.6297 71.9069 31.4291 69.5182 29.2367 68.7941C28.5103 68.5531 27.766 68.5295 27.0707 68.6813C27.0317 68.6888 11.4773 72.3857 11.4367 72.3937C9.51866 72.8501 7.82902 74.1444 7.17912 76.1692C6.23275 79.11 7.81794 82.2709 10.7209 83.2307C12.0207 83.6603 13.3706 83.5876 14.5353 83.0826C14.8598 82.9464 29.4008 76.7875 29.4377 76.7704Z" fill="#EB2D4B"/>
<path d="M16.8681 42.3881C17.6662 43.3239 18.803 43.9555 20.1139 43.9555C22.4233 43.9539 24.2929 42.0574 24.2929 39.7189C24.2929 38.9456 24.0834 38.2231 23.7242 37.6C23.7073 37.5647 15.4111 23.731 15.3894 23.6968C14.3666 21.9899 12.6274 20.7656 10.5273 20.7656C7.47142 20.7683 4.99895 23.2773 5 26.3703C5 27.7565 5.48479 29.031 6.32143 29.9978C6.54879 30.2666 16.8428 42.3577 16.8681 42.3881Z" fill="#EB2D4B"/>
<path d="M57.6759 23.9673C57.6701 24.0074 55.9277 42.3594 55.924 42.3984C55.8169 43.4865 55.9588 44.6076 56.48 45.6502C57.8668 48.4061 61.1965 49.5048 63.918 48.1015C65.9858 47.0343 67.1189 44.8278 66.9169 42.6213C66.9121 42.5812 65.1756 24.1404 65.1703 24.0993C65.1392 23.5953 65.0104 23.0903 64.7694 22.6131C63.8272 20.7364 61.561 19.9898 59.7115 20.9437C58.5236 21.5561 57.8214 22.7173 57.6759 23.9673Z" fill="#EB2D4B"/>
<path d="M75.1423 53.2746C75.1027 53.2836 57.3396 57.2916 57.2995 57.2991C56.2461 57.5342 55.2369 58.0157 54.4235 58.8424C52.2623 61.0323 52.2649 64.5791 54.4246 66.7653C56.0688 68.4267 58.4891 68.8344 60.4968 67.9564C60.5332 67.9393 77.304 60.5508 77.3399 60.5337C77.8025 60.3478 78.2377 60.0656 78.6117 59.6867C80.0814 58.1958 80.0803 55.7846 78.6107 54.2969C77.6691 53.3435 76.3608 53.0277 75.1423 53.2746Z" fill="#EB2D4B"/>
<path d="M53.0366 79.1719C53.016 79.1371 43.7766 63.2545 43.7576 63.2182C43.2137 62.275 42.4493 61.4509 41.4207 60.9203C38.6997 59.5154 35.3706 60.6109 33.9822 63.3651C32.9271 65.4621 33.2938 67.9203 34.7365 69.5844C34.7618 69.6154 46.8699 83.4994 46.8968 83.5293C47.2144 83.9183 47.6137 84.2497 48.0853 84.4933C49.9369 85.4499 52.2015 84.705 53.1432 82.8303C53.7493 81.6285 53.6443 80.2711 53.0366 79.1719Z" fill="#EB2D4B"/>
<path d="M21.8849 65.876C21.9129 65.8461 33.9751 52.0412 33.9993 52.0118C34.7173 51.1958 35.2564 50.2061 35.4357 49.0507C35.9168 45.9935 33.8627 43.1238 30.8458 42.6364C28.5522 42.2672 26.3556 43.3776 25.2394 45.2838C25.2178 45.318 15.9192 61.2701 15.8986 61.3048C15.6312 61.7313 15.4434 62.217 15.3616 62.7482C15.0356 64.8265 16.4336 66.7786 18.4845 67.1094C19.7991 67.3205 21.0414 66.8005 21.8849 65.876Z" fill="#EB2D4B"/>
<path d="M96 22C96 31.9411 87.9411 40 78 40C68.0589 40 60 31.9411 60 22C60 12.0589 68.0589 4 78 4C87.9411 4 96 12.0589 96 22Z" fill="#3391FF"/>
</svg>
